<svg viewBox="0 0 1024 1024" xmlns="http://www.w3.org/2000/svg"><defs><linearGradient x1="0%" y1="26.571%" x2="50%" y2="73.429%" id="a"><stop stop-color="#ABDCFF" offset="0%"/><stop stop-color="#0396FF" offset="100%"/></linearGradient><linearGradient x1="0%" y1="26.571%" x2="50%" y2="73.429%" id="b"><stop stop-color="#90F7EC" offset="0%"/><stop stop-color="#32CCBC" offset="100%"/></linearGradient></defs><path d="M235.212 156h421.2c53.02 0 96 42.98 96 96a96 96 0 0 1-1.076 14.336l-36.24 240C708 553.28 667.656 588 620.172 588h-436.28c-26.512 0-48-21.492-48-48a48 48 0 0 1 .548-7.248l51.32-336A48 48 0 0 1 235.216 156z" fill="url(#a)" opacity=".723"/><path d="M362.104 440h422.312c53.016 0 96 42.98 96 96a96 96 0 0 1-1.08 14.336l-36.24 240C836 837.28 795.656 872 748.172 872h-436.44c-26.508 0-48-21.492-48-48a48 48 0 0 1 .532-7.12l50.368-336A48 48 0 0 1 362.104 440z" fill="url(#b)" opacity=".723"/></svg>