<svg viewBox="0 0 970 220" xmlns="http://www.w3.org/2000/svg"><defs><linearGradient x1="0%" y1="26.571%" x2="50%" y2="73.429%" id="a"><stop stop-color="#ABDCFF" offset="0%"/><stop stop-color="#0396FF" offset="100%"/></linearGradient><linearGradient x1="0%" y1="26.571%" x2="50%" y2="73.429%" id="b"><stop stop-color="#90F7EC" offset="0%"/><stop stop-color="#32CCBC" offset="100%"/></linearGradient><linearGradient x1="-25.353%" y1="46.326%" y2="52.225%" id="c"><stop stop-color="#32CCBC" offset="0%"/><stop stop-color="#0396FF" offset="100%"/></linearGradient></defs><g fill="none" fill-rule="evenodd"><path d="M26.803 0h105.3c13.255 0 24 10.745 24 24a24 24 0 0 1-.269 3.584l-9.06 60C145 99.32 134.914 108 123.043 108H13.973c-6.628 0-12-5.373-12-12a12 12 0 0 1 .137-1.812l12.83-84A12 12 0 0 1 26.804 0z" fill="url(#a)" opacity=".76"/><path d="M58.526 71h105.578c13.254 0 24 10.745 24 24a24 24 0 0 1-.27 3.584l-9.06 60C177 170.32 166.914 179 155.043 179H45.933c-6.627 0-12-5.373-12-12a12 12 0 0 1 .133-1.78l12.592-84A12 12 0 0 1 58.526 71z" fill="url(#b)" opacity=".76"/><path d="M227.685 179l6.771-43.188c.854-5.856 2.501-10.584 4.941-14.183s5.399-6.282 8.876-8.052c3.477-1.769 7.289-2.653 11.437-2.653 2.928 0 5.338.183 7.228.549 1.892.366 4.057 1.098 6.497 2.196l4.758-28.731a68.62 68.62 0 0 0-4.392-.64c-1.586-.183-3.355-.275-5.307-.275-5.368 0-10.309 1.098-14.823 3.294-4.514 2.196-8.51 5.551-11.986 10.065a44.007 44.007 0 0 0-2.5 3.614l-.282.461.494-15.421h-31.293a309.66 309.66 0 0 1-2.562 25.437L194.745 179h32.94zm83.953 2.013c7.564 0 14.06-1.708 19.49-5.124 2.977-1.873 5.541-4.077 7.693-6.61l.365-.439-1.562 10.16h32.208l10.797-67.71a353.344 353.344 0 0 1 2.47-12.627c.915-4.27 1.922-8.479 3.02-12.627h-31.293l-3.789 13.113-.079-.233c-1.391-3.927-4.114-7.19-8.166-9.786l-.41-.257c-5.246-3.234-11.468-4.85-18.666-4.85-7.93 0-15.19 1.647-21.777 4.941-6.588 3.294-12.14 8.296-16.653 15.006-4.514 6.71-7.625 15.128-9.333 25.254-1.586 10.126-1.129 19.093 1.372 26.901 2.501 7.808 6.74 13.908 12.719 18.3 5.978 4.392 13.176 6.588 21.594 6.588zm11.895-24.156c-5.734 0-10.035-1.982-12.902-5.947-2.867-3.965-3.568-10.584-2.104-19.856 1.342-7.93 3.873-13.725 7.594-17.385 3.721-3.66 8.266-5.49 13.634-5.49 5.734 0 10.034 1.952 12.901 5.856 2.867 3.904 3.569 10.553 2.105 19.947-1.22 7.808-3.721 13.572-7.503 17.293s-8.357 5.582-13.725 5.582zm107.718 63.135c16.714 0 29.89-4.178 39.528-12.535 9.638-8.357 15.738-20.344 18.3-35.96l9.516-60.207c.61-4.148 1.373-8.357 2.288-12.627a173.77 173.77 0 0 1 3.202-12.627h-31.293l-3.767 12.869-.1-.29c-1.392-3.84-4.114-7.034-8.167-9.581l-.41-.253c-5.246-3.172-11.468-4.758-18.666-4.758-8.174 0-15.585 1.617-22.234 4.85-6.649 3.233-12.139 8.051-16.47 14.456-4.331 6.406-7.29 14.305-8.876 23.699-1.83 10.492-1.372 19.428 1.373 26.81 2.745 7.38 7.137 12.993 13.176 16.835 6.039 3.844 13.206 5.765 21.502 5.765 7.442 0 13.878-1.647 19.307-4.941 3.732-2.265 6.73-4.962 8.992-8.091l.109-.155-1.873 11.906c-1.066 6.4-3.543 11.39-7.43 14.968l-.347.313c-4.087 3.599-10.34 5.398-18.758 5.398-3.782 0-7.655-.366-11.62-1.098a72.966 72.966 0 0 1-11.529-3.111c-3.721-1.342-6.985-2.989-9.79-4.941l-8.236 23.241c5.368 3.416 11.468 5.948 18.3 7.595 6.832 1.647 14.823 2.47 23.973 2.47zm10.614-67.527c-5.734 0-10.004-1.922-12.81-5.764-2.806-3.844-3.66-9.425-2.562-16.745 1.22-7.076 3.691-12.474 7.412-16.195s8.448-5.582 14.182-5.582c5.612 0 9.821 1.891 12.627 5.673 2.806 3.782 3.66 9.455 2.562 17.019-1.098 6.954-3.507 12.291-7.228 16.012-3.721 3.721-8.449 5.582-14.183 5.582zM540.566 179l8.235-50.874c.976-5.978 2.898-10.675 5.765-14.091 2.867-3.416 6.74-5.124 11.62-5.124 3.904 0 6.558 1.25 7.96 3.751 1.404 2.501 1.678 6.497.824 11.987L566.37 179h32.573l8.052-50.874c.976-5.978 2.959-10.675 5.948-14.091 2.989-3.416 6.862-5.124 11.62-5.124 3.782 0 6.405 1.25 7.87 3.751 1.463 2.501 1.768 6.497.914 11.987l-8.6 54.351h32.756l8.418-53.619c2.318-14.274 1.22-24.736-3.294-31.385-4.514-6.648-12.322-9.973-23.424-9.973-6.71 0-13.267 1.769-19.672 5.307-4.852 2.68-8.987 6.166-12.404 10.457l-.1.128-.02-.073c-1.335-4.64-3.699-8.217-7.092-10.73l-.331-.24c-4.575-3.233-10.279-4.849-17.11-4.849-7.077 0-13.36 1.495-18.85 4.484-4.289 2.335-8.02 5.62-11.191 9.853l-.219.297.43-12.621h-31.293a309.66 309.66 0 0 1-1.006 12.627 274.54 274.54 0 0 1-1.556 12.627L507.992 179h32.574zm188.473 2.013c6.954 0 13.542-.793 19.764-2.379 6.222-1.586 11.956-4.087 17.202-7.503l-8.235-21.228c-4.148 2.44-8.144 4.209-11.987 5.307-3.843 1.098-7.838 1.647-11.986 1.647-9.272 0-15.647-2.043-19.124-6.13-2.687-3.159-4.044-7.355-4.072-12.59v-.128l58.515-.001.915-6.405c1.586-9.272 1.098-17.477-1.464-24.614-2.562-7.136-6.924-12.749-13.085-16.836-6.16-4.087-14-6.13-23.515-6.13-9.15 0-17.294 1.83-24.43 5.49-7.138 3.66-12.994 8.814-17.569 15.463-4.575 6.65-7.594 14.549-9.058 23.699-1.586 10.248-.763 19.306 2.47 27.175 3.233 7.87 8.693 14.03 16.379 18.483 7.686 4.453 17.446 6.68 29.28 6.68zm15.226-58.377h-31.56l.01-.042c.592-2.538 1.428-4.878 2.507-7.02l.275-.532c1.586-2.99 3.66-5.338 6.222-7.046 2.562-1.708 5.673-2.562 9.333-2.562 5.002 0 8.662 1.678 10.98 5.032 1.912 2.768 2.662 6.761 2.25 11.978l-.017.192zM810.743 179l8.418-52.155c.854-5.368 2.958-9.699 6.313-12.993 3.355-3.294 7.656-4.941 12.902-4.941 3.904 0 6.801 1.22 8.692 3.66 1.891 2.44 2.41 6.527 1.556 12.261L840.023 179h32.574l8.6-53.985c2.197-13.908.916-24.217-3.842-30.927-4.758-6.71-12.627-10.065-23.607-10.065-7.076 0-13.542 1.525-19.398 4.575-4.614 2.403-8.546 5.753-11.797 10.049l-.171.229.439-12.84h-31.293a309.66 309.66 0 0 1-1.007 12.627 274.54 274.54 0 0 1-1.555 12.627L778.169 179h32.574zm129.094 2.013c2.44 0 4.972-.183 7.595-.549 2.623-.366 5.337-1.098 8.143-2.196l4.026-25.071c-1.952.61-3.63 1.067-5.032 1.373-1.403.305-3.08.457-5.033.457-3.538 0-6.435-.945-8.692-2.837-2.257-1.89-2.959-5.398-2.105-10.522l4.941-31.659h22.692l3.843-23.973h-22.692l4.758-29.646-33.855 7.686-3.477 21.96h-17.385l-3.843 23.973h17.385l-5.307 32.94c-1.83 12.078.03 21.441 5.582 28.09 5.55 6.65 15.036 9.974 28.456 9.974z" fill="url(#c)" opacity=".76"/></g></svg>