<svg viewBox="0 0 970 220" xmlns="http://www.w3.org/2000/svg"><path d="M441.682 84.023c7.198 0 13.42 1.586 18.666 4.758l.41.253c4.053 2.547 6.775 5.74 8.167 9.58l.1.291 3.767-12.869h31.293l-.45 1.558a174.087 174.087 0 0 0-2.752 11.069 197.222 197.222 0 0 0-2.288 12.627l-9.516 60.207-.126.753c-2.633 15.249-8.691 26.984-18.174 35.207-9.638 8.357-22.814 12.535-39.528 12.535-9.15 0-17.14-.823-23.973-2.47-6.832-1.647-12.932-4.179-18.3-7.595l8.235-23.241.568.386c2.676 1.784 5.75 3.302 9.223 4.555a72.966 72.966 0 0 0 11.529 3.111c3.965.732 7.838 1.098 11.62 1.098 8.418 0 14.671-1.8 18.758-5.399l.347-.312c3.887-3.579 6.364-8.568 7.43-14.968l1.873-11.906-.11.155c-2.261 3.13-5.259 5.826-8.991 8.091-5.429 3.294-11.865 4.941-19.307 4.941-8.296 0-15.463-1.921-21.502-5.764-6.039-3.844-10.431-9.456-13.176-16.837-2.745-7.38-3.203-16.317-1.373-26.809 1.586-9.394 4.545-17.294 8.876-23.699 4.331-6.404 9.821-11.223 16.47-14.456 6.649-3.234 14.06-4.85 22.234-4.85zm-117.966 0c7.198 0 13.42 1.617 18.666 4.85l.41.257c4.052 2.597 6.775 5.859 8.166 9.786l.079.233 3.789-13.113h31.293l-.542 2.08c-.89 3.473-1.715 6.989-2.478 10.547a353.344 353.344 0 0 0-2.47 12.627L369.832 179h-32.208l1.562-10.16-.365.439c-2.152 2.533-4.716 4.737-7.694 6.61-5.429 3.416-11.925 5.124-19.49 5.124-8.417 0-15.615-2.196-21.593-6.588-5.978-4.392-10.218-10.492-12.719-18.3-2.5-7.808-2.958-16.775-1.372-26.901 1.708-10.126 4.819-18.544 9.333-25.254 4.514-6.71 10.065-11.712 16.653-15.006 6.588-3.294 13.847-4.941 21.777-4.941zm408.25 0c9.517 0 17.355 2.044 23.516 6.13 6.161 4.087 10.523 9.7 13.085 16.837 2.562 7.136 3.05 15.341 1.464 24.613l-.915 6.405-58.515.001v.129c.028 5.234 1.385 9.43 4.072 12.588 3.477 4.088 9.852 6.131 19.124 6.131 4.148 0 8.143-.549 11.986-1.647 3.843-1.098 7.839-2.867 11.987-5.307l8.235 21.228-.687.44c-5.059 3.192-10.564 5.546-16.515 7.063-6.222 1.586-12.81 2.379-19.764 2.379-11.834 0-21.594-2.227-29.28-6.68-7.686-4.452-13.146-10.613-16.379-18.482-3.233-7.87-4.056-16.928-2.47-27.176 1.464-9.15 4.483-17.05 9.058-23.699 4.575-6.648 10.431-11.803 17.568-15.463 7.137-3.66 15.28-5.49 24.43-5.49zM952.282 56.39l-4.758 29.646h22.692l-3.843 23.973H943.68l-4.94 31.659-.069.423c-.746 4.895-.022 8.261 2.173 10.1 2.257 1.89 5.154 2.836 8.692 2.836 1.952 0 3.63-.152 5.033-.457 1.403-.305 3.08-.763 5.032-1.373l-4.026 25.071-.646.247c-2.577.961-5.076 1.611-7.497 1.949a54.969 54.969 0 0 1-7.595.549c-13.42 0-22.905-3.325-28.456-9.974-5.551-6.648-7.412-16.012-5.582-28.09l5.307-32.94h-17.385l3.843-23.973h17.385l3.477-21.96 33.855-7.686zM163.104 71c13.254 0 24 10.745 24 24a24 24 0 0 1-.27 3.584l-9.06 60C176 170.32 165.914 179 154.043 179H44.933c-6.627 0-12-5.373-12-12a12 12 0 0 1 .133-1.78L41.643 108h80.4c11.744 0 21.743-8.495 23.671-20.043l.06-.373L148.277 71h14.827zm105.39 13.023c1.952 0 3.721.092 5.307.275a68.62 68.62 0 0 1 4.392.64l-4.758 28.731-.519-.23c-2.229-.97-4.222-1.626-5.978-1.966-1.89-.366-4.3-.549-7.228-.549-4.148 0-7.96.884-11.437 2.653-3.477 1.77-6.436 4.454-8.876 8.052-2.44 3.6-4.087 8.327-4.941 14.183L227.685 179h-32.94l10.797-67.527.297-2.135a309.66 309.66 0 0 0 2.265-23.302h31.293l-.494 15.421.282-.46a44.007 44.007 0 0 1 2.5-3.615c3.476-4.514 7.472-7.869 11.986-10.065 4.514-2.196 9.455-3.294 14.823-3.294zm370.71 0c11.101 0 18.91 3.325 23.423 9.974 4.514 6.648 5.612 17.11 3.294 31.384L657.503 179h-32.757l8.601-54.351.075-.495c.76-5.236.43-9.066-.99-11.492-1.464-2.5-4.087-3.751-7.869-3.751-4.758 0-8.631 1.708-11.62 5.124-2.99 3.416-4.972 8.113-5.948 14.091L598.943 179H566.37l8.601-54.351.075-.495c.762-5.236.462-9.066-.898-11.492-1.403-2.5-4.057-3.751-7.96-3.751-4.88 0-8.754 1.708-11.621 5.124-2.867 3.416-4.789 8.113-5.765 14.091L540.566 179h-32.574l10.797-67.71.298-2.08c.483-3.473.902-6.989 1.258-10.547.427-4.27.762-8.479 1.006-12.627h31.293l-.43 12.621.219-.297c3.172-4.234 6.902-7.518 11.191-9.853 5.49-2.99 11.773-4.484 18.85-4.484 6.831 0 12.535 1.617 17.11 4.85l.331.24c3.393 2.512 5.757 6.09 7.093 10.73l.019.072.1-.128c3.417-4.291 7.552-7.777 12.404-10.457 6.405-3.538 12.962-5.307 19.672-5.307zm214.544 0c10.98 0 18.849 3.355 23.607 10.065 4.758 6.71 6.039 17.019 3.843 30.927L872.597 179h-32.574l8.6-54.168.07-.487c.754-5.48.212-9.404-1.625-11.774-1.89-2.44-4.788-3.66-8.692-3.66-5.246 0-9.547 1.647-12.902 4.941-3.355 3.294-5.46 7.625-6.313 12.993L810.743 179h-32.574l10.797-67.71.297-2.08c.483-3.473.902-6.989 1.258-10.547.427-4.27.763-8.479 1.007-12.627h31.293l-.439 12.84.171-.229c3.25-4.296 7.183-7.646 11.797-10.049 5.856-3.05 12.322-4.575 19.398-4.575zm-523.993 24.156c-5.368 0-9.913 1.83-13.634 5.49-3.72 3.66-6.252 9.455-7.594 17.385-1.464 9.272-.763 15.89 2.104 19.856 2.867 3.965 7.168 5.947 12.902 5.947 5.368 0 9.943-1.86 13.725-5.582 3.782-3.72 6.283-9.485 7.503-17.293 1.464-9.394.762-16.043-2.105-19.947s-7.167-5.856-12.901-5.856zm118.332 0c-5.734 0-10.461 1.86-14.182 5.581s-6.192 9.12-7.412 16.196c-1.098 7.32-.244 12.901 2.562 16.745 2.806 3.843 7.076 5.764 12.81 5.764 5.734 0 10.462-1.86 14.183-5.582 3.721-3.72 6.13-9.058 7.228-16.012 1.098-7.564.244-13.237-2.562-17.019-2.806-3.782-7.015-5.673-12.627-5.673zm282.965-2.745c-3.66 0-6.771.854-9.333 2.562-2.562 1.708-4.636 4.056-6.222 7.046l-.275.531c-1.08 2.143-1.915 4.483-2.508 7.021l-.009.042h31.56l.016-.192c.413-5.217-.337-9.21-2.25-11.978-2.317-3.354-5.977-5.032-10.98-5.032zM131.104 0c13.254 0 24 10.745 24 24a24 24 0 0 1-.27 3.584L148.277 71H57.526a12 12 0 0 0-11.82 9.924l-.048.297L41.643 108h-28.67c-6.628 0-12-5.373-12-12a12 12 0 0 1 .137-1.812l12.83-84A12 12 0 0 1 25.804 0h105.3z" /></svg>